<svg id="Capa_1" enable-background="new 0 0 509.37 509.37" height="512" viewBox="0 0 509.37 509.37" width="512" xmlns="http://www.w3.org/2000/svg"><g><g><g><g><path d="m150.799 144.609 36.482 5.557s51.728 14.02 67.174 14.656c9.553-104.92-46.386-159.323-150.014-149.741-2.306 52.4 1.304 97.516 46.358 129.528z" fill="#a7eed4"/></g><g><path d="m463.54 279.231c5.062-104.633-83.015-159.183-169.376-125.756.003-.001-32.594 11.347-32.594 11.347h-14.298c-3.322-.183-40.744-15.01-52.829-17.475 0 0-15-2.554-15-2.554-68.067-7.446-133.064 35.69-134.468 113.509-.001 0-.001 65.786-.001 65.786 0 98.125 79.546 177.671 177.671 177.671 35.13-.997 89.302 3.917 121.797-9.883 93.508-38.129 124.789-112.717 119.098-212.645z" fill="#f35173"/></g><g><path d="m464.001 289.826c-2.718 83.287-36.713 145.692-119.559 179.473-32.495 13.801-86.667 8.886-121.797 9.883-78.598.366-144.569-60.042-153.099-138.165-9.233-93.997-2.607-183.655 106.322-196.565-66.751-5.579-129.514 37.395-130.894 113.85-.066-.327.047 55.543-.001 65.786-1.772 103.193 92.213 186.998 194.061 177.537-.001 0-.002 0-.003 0 138.363 14.675 233.477-73.002 224.97-211.799z" fill="#ec1646"/></g><g><path d="m254.184 142.423s-47.18-15.019-60.013-17.475c-12.5-2.6-26.906-4.042-39.74-3.098-25.83-29.125-28.751-66.08-27.193-107.846-7.319-.005-14.918.348-22.796 1.077-2.818 49.474 1.997 99.321 46.357 129.527 13.754-1.598 29.86-.128 43.643 2.739 12.833 2.456 44.567 16.838 60.013 17.475.318-3.511-.271-22.399-.271-22.399z" fill="#71e4bf"/></g><g><path d="m148.872 58.767h15v14.488h-15z" fill="#fff" transform="matrix(.707 -.707 .707 .707 -.877 129.906)"/></g><g><path d="m81.941 224.081h15v15h-15z" fill="#fff"/></g><g><path d="m81.941 254.08h15v15h-15z" fill="#fff"/></g></g></g><g><path d="m356.334 479.032 6.218 13.65c4.711-2.146 9.391-4.521 13.909-7.061l-7.35-13.076c-4.15 2.333-8.449 4.516-12.777 6.487z"/><path d="m471.038 279.484c11.158-106.155-88.506-169.393-179.485-133.042.003-.001-29.47 10.259-29.47 10.259 1.766-55.723 25.787-107.702 66.439-146.095l-10.606-10.606c-27.485 26.149-48.415 58.605-60.019 94.771-8.482-31.657-29.894-58.713-60.023-74.203l-6.858 13.34c43.261 22.085 59.586 65.517 55.927 112.066l-69.165-69.165-10.608 10.607 64.374 64.374c-11.89-4.045-23.188-9.176-35.437-11.755l-2.708 14.626c13.508 3.043 47.644 16.898 52.749 17.66 0 .001 16.689.001 16.689.001 33.13-11.843 69.822-27.303 104.961-18.72 60.397 11.889 92.549 57.884 88.242 125.576-.039 5.561-.021 14.981-.005 24.092 4.393 63.653-20.521 124.993-73.918 161.175l8.495 12.363c57.435-38.968 84.984-105.015 80.422-173.566-.015-8.968-.032-18.237.004-23.758z"/><path d="m285.868 494.259h-63.224c-93.833 0-170.171-76.338-170.171-170.171v-65.675c-.156-68.754 60.68-114.47 125.469-106.249l2.347-14.823c-9.093-1.033-18.26-1.172-27.312-.441-38.717-29.034-43.236-69.293-41.035-114.32 19.442.215 46.818-1.767 65.096 5.406l4.808-14.209c-22.223-8.92-61.214-5.659-84.904-6.197-1.118 49.31-2.882 95.999 36.451 132.312-56.724 12.755-94.78 58.007-95.916 118.192-.001 0-.004 66.003-.004 66.003 0 102.104 83.067 185.171 185.171 185.171 36.354-.857 90.133 3.899 124.27-10.3l-4.943-14.162c-17.988 6.28-36.864 9.463-56.103 9.463z"/></g></g></svg>