<svg height="512" viewBox="0 0 64 64" width="512" xmlns="http://www.w3.org/2000/svg"><g id="Layer_32" data-name="Layer 32"><path d="m28.68 30h6.64a9.63 9.63 0 0 1 2.91.46l-.23-.46a37.1 37.1 0 0 1 -3-14.62v-.38a3 3 0 0 0 -6 0v.38a37.1 37.1 0 0 1 -3 14.62l-.22.44a9.88 9.88 0 0 1 2.9-.44z" fill="#f7d881"/><path d="m4 62 6-6h44l6 6z" fill="#f2c351"/><path d="m49 52 4 4h-42l4-4z" fill="#f7d881"/><path d="m32 12a2.93 2.93 0 0 1 2 .74l-2-10.74-1.95 10.74a2.93 2.93 0 0 1 1.95-.74z" fill="#f2c351"/><path d="m26 16h12v2h-12z" fill="#f2c351"/><path d="m25 20h14v2h-14z" fill="#f2c351"/><path d="m24 24h16v2h-16z" fill="#f2c351"/><path d="m62 34h-24l2-4h20z" fill="#f7d881"/><path d="m45 39.68a9.66 9.66 0 0 0 -1.84-5.68h-5.16l1.52-3a9.53 9.53 0 0 0 -4.2-1h-6.64a9.68 9.68 0 0 0 -9.68 9.68 39.1 39.1 0 0 1 -2 12.32h30a39.1 39.1 0 0 1 -2-12.32z" fill="#f2c351"/><g fill="#a0a8b2"><path d="m38 34h2v3h-2z"/><path d="m48 34h4v25h-4z"/><path d="m55 34h2v3h-2z"/><path d="m60 34h2v3h-2z"/><path d="m48 30v-2a2 2 0 0 1 2-2 2 2 0 0 1 2 2v2z"/></g><path d="m42 59h16v3h-16z" fill="#c1c8d1"/><path d="m15 20a3 3 0 0 0 0-6 2.89 2.89 0 0 0 -1 .19c0-.06 0-.13 0-.19a4 4 0 0 0 -8 0v.19a2.89 2.89 0 0 0 -1-.19 3 3 0 0 0 0 6z" fill="#8bd2f5"/><path d="m59 12a3 3 0 0 0 0-6 2.89 2.89 0 0 0 -1 .19c0-.06 0-.13 0-.19a4 4 0 0 0 -8 0v.19a2.89 2.89 0 0 0 -1-.19 3 3 0 0 0 0 6z" fill="#8bd2f5"/><path d="m1 61h62v2h-62z" fill="#a0a8b2"/></g></svg>