<svg id="Capa_1" enable-background="new 0 0 512 512" height="512" viewBox="0 0 512 512" width="512" xmlns="http://www.w3.org/2000/svg"><g><g><g><g><g><g><g><g><g><g><g><g><circle cx="256" cy="256" fill="#ffea98" r="256"/></g></g></g></g></g></g></g></g></g></g></g><path d="m507.505 208.092-97.964-97.964-4.453-.38-31.811-31.811-110.796 208.093-211.656 107 93.267 93.267c33.809 16.46 71.777 25.703 111.908 25.703 141.385 0 256-114.615 256-256 0-16.376-1.556-32.387-4.495-47.908z" fill="#fd5"/><g><path d="m314.872 347.617h15v55.305h-15z" fill="#2d2d2d"/></g><path d="m250.873 280.796-81.133 33.278-121.982 75.89 3.066 3.066 175.561-72.636s10.035 12.286 29.611 26.25l3.1-30.121z" fill="#dfcfc1"/><path d="m337.679 152.284-28.143 3.534-2.746 15.486-2.199 88.311-48.593 19.931v67.098c11.59 8.214 25.419 13.353 40.083 13.353 33.048 0 78.259-15.837 89.86-83.293 8.973-52.177-5.414-95.717-17.1-120.886z" fill="#c6a98f"/><g fill="#7e5d40"><path d="m367.119 214.199h15.202l-7.601 15.202z"/><path d="m352.464 194.194h15.202l-7.601 15.203z"/><path d="m352.464 234.204h15.202l-7.601 15.202z"/></g><g><path d="m283.437 347.617h15v55.305h-15z" fill="#2d2d2d"/></g><path d="m255.997 225.791-81.133 87.033c32.906 7.119 59.555 7.845 81.133 4.137l7.003-44.485z" fill="#9f7651"/><path d="m306.79 171.304-50.793 54.487v91.171c106.874-18.362 89.171-145.657 89.171-145.657h-38.378z" fill="#7e5d40"/><path d="m356.021 132.254c2.526-.368 4.952-1.039 7.248-1.964-.009-.005-.126-58.823-.12-58.827-3.63-1.447-7.585-2.251-11.731-2.251-14.998 0-25.592 8.35-31.367 27.311l-7.945 44.799 25.572 2.666 23.755-2.666c-2.79-4.975-5.412-9.068-5.412-9.068z" fill="#8dc805"/><path d="m312.107 141.321h49.327c2.103 3.748 4.675 8.615 7.406 14.497h-59.304z" fill="#fff"/><path d="m363.242 130.276c-12.948-8.711-28.253-29.438-28.253-29.438s15.252-20.611 28.142-29.365c11.708 4.662 19.995 16.076 19.995 29.446-.001 13.322-8.239 24.672-19.884 29.357z" fill="#ff5b5b"/><path d="m381.715 91.548 27.826 18.58h-27.82l-5.001-7.96z" fill="#7e5d40"/><g><g><circle cx="362.065" cy="98.148" fill="#fff" r="6.363"/></g><g><circle cx="362.065" cy="98.148" fill="#2d2d2d" r="4.5"/></g></g></g></svg>