<svg id="Layer_1" enable-background="new 0 0 512 512" height="512" viewBox="0 0 512 512" width="512" xmlns="http://www.w3.org/2000/svg"><g><g><g><path d="m245.856 259.763c0 40.041-32.688 72.5-73.01 72.5s-73.01-32.46-73.01-72.5c0-53.857 73.01-129.461 73.01-129.461s73.01 75.604 73.01 129.461z" fill="#fc0"/><g><path d="m412.164 275.496-90.726 106.202v-85.146l90.726-106.203z" fill="#fc0"/><g><path d="m187.224 296.552h134.214v85.147h-134.214z" fill="#ffe64f"/></g><path d="m321.438 296.552 90.726-106.203h-134.214l-90.726 106.203z" fill="#fff08f"/></g></g></g><path d="m437.02 74.98c-48.353-48.351-112.64-74.98-181.02-74.98s-132.667 26.629-181.02 74.98c-48.351 48.353-74.98 112.64-74.98 181.02s26.629 132.667 74.98 181.02c48.353 48.351 112.64 74.98 181.02 74.98 36.497 0 71.752-7.525 104.786-22.366 31.905-14.334 60.124-34.725 83.873-60.605 6.556-7.146-4.495-17.286-11.053-10.142-22.363 24.371-48.932 43.57-78.968 57.064-31.087 13.967-64.274 21.049-98.638 21.049-61.867 0-120.166-23.165-165.019-65.374l88.743-88.743v38.815c0 4.142 3.358 7.5 7.5 7.5h134.201c2.17 0 4.304-.977 5.715-2.628l90.726-106.203c1.16-1.358 1.798-3.085 1.798-4.872v-85.146c0-4.058-3.439-7.5-7.5-7.5h-72.405l91.868-91.868c42.208 44.853 65.373 103.152 65.373 165.019 0 47.312-13.716 93.122-39.666 132.477-5.338 8.096 7.184 16.352 12.523 8.257 27.571-41.813 42.143-90.478 42.143-140.734 0-68.38-26.629-132.667-74.98-181.02zm-242.296 229.072h119.214v70.146h-119.214s0-61.594 0-70.146zm209.939-31.323-75.726 88.644v-62.053l75.726-88.644zm-86.683 16.323h-114.485l77.912-91.203h114.485zm-40.031-106.203c-2.193 0-4.277.96-5.702 2.628l-28.719 33.618c-15.087-34.802-39.094-66.676-65.262-93.978-2.67-2.791-6.699-2.95-9.71-.968-8.921 5.872-15.518 18.239-22.879 26.033-6.658 7.05 4.244 17.347 10.905 10.3 5.739-6.076 10.708-12.792 16.176-19.1 21.406 23.929 45.955 54.864 59.824 90.526l-51.061 59.772c-1.107 1.298-1.888 3.165-1.797 4.897v27.812c-23.259 2.322-46.958-8.16-60.513-27.295-12.567-17.741-14.927-40.411-6.646-63.833 3.935-11.126 9.543-22.456 17.649-35.655 5.074-8.264-7.706-16.113-12.782-7.851-8.673 14.122-14.713 26.357-19.009 38.505-9.953 28.148-6.917 55.672 8.547 77.504 12.981 18.324 33.523 30.189 55.474 33.185l-82.07 82.07c-42.209-44.853-65.374-103.152-65.374-165.019 0-64.374 25.068-124.894 70.587-170.413s106.039-70.587 170.413-70.587c61.866 0 120.166 23.165 165.019 65.374l-102.475 102.475z"/></g></svg>