<svg height="512" viewBox="0 0 58 59" width="512" xmlns="http://www.w3.org/2000/svg"><g id="Page-1" fill="none" fill-rule="evenodd"><g id="023---Cuisine" fill-rule="nonzero"><path id="Shape" d="m55 54-26 2-26-2c.00909858-13.3876223 10.1753079-24.5834306 23.5-25.88.82-.08 1.66-.12 2.5-.12s1.68.04 2.5.12c13.3246921 1.2965694 23.4909014 12.4923777 23.5 25.88z" fill="#3b97d3"/><path id="Shape" d="m7.361 51c-.29695471.000396-.5787254-.1312063-.7690213-.359175s-.26943086-.5287204-.2159787-.820825c.83877011-4.5837362 3.0614734-8.8005557 6.369-12.083 1.067719-1.0695292 2.2368846-2.0327261 3.491-2.876.4586725-.3078987 1.0801013-.1856725 1.388.273s.1856725 1.0801013-.273 1.388c-1.1469132.7700978-2.2156774 1.6506309-3.191 2.629-3.0208669 2.995099-5.05075941 6.8444257-5.816 11.029-.08686927.4747251-.50039244.8196783-.983.82z" fill="#fff"/><path id="Shape" d="m58 56.5c.0021341.6636932-.2605727 1.3008186-.729877 1.770123-.4693044.4693043-1.1064298.7320111-1.770123.729877h-53c-1.38071187 0-2.5-1.1192881-2.5-2.5s1.11928813-2.5 2.5-2.5h53c1.3807119 0 2.5 1.1192881 2.5 2.5z" fill="#95a5a5"/><path id="Shape" d="m32.98 25.34v.01c-.0885841 1.0884069-.6244645 2.0913722-1.48 2.77h-5c-.7875482-.6281969-1.3060713-1.5329303-1.45-2.53-.0319547-.1950708-.0486719-.3923337-.05-.59-.0018624-1.0614358.4189669-2.0799339 1.1695165-2.8304835s1.7690477-1.1713789 2.8304835-1.1695165c1.275325-.0059506 2.4748539.6049896 3.22 1.64z" fill="#95a5a5"/><path id="Shape" d="m50.72 18.23c-.3935423.8248224-1.2261031 1.350036-2.14 1.35-.3530301.0015628-.7018037-.0770822-1.02-.23l-13.56-6.42.03.03c1.6013647 1.6223212 2.642037 3.7141775 2.97 5.97-.0340096 1.8818789-.4206951 3.7406826-1.14 5.48-.4064565.9699167-1.4946255 1.4593742-2.49 1.12-.1352822-.0478213-.2658407-.108079-.39-.18v-.01c-.6076835-.3501274-.9815483-.9986684-.98-1.7.0024301-.2178227.0395625-.433866.11-.64.03-.1.07-.22.11-.36.3229013-.9758396.5309716-1.9859873.62-3.01-.1963863-1.8108289-1.3549083-3.3746424-3.03-4.09-1.33-.64-4.14-1.62-4.81.39-.69 2.06.22 4.4 1.12 6.29-.7186193.7470732-1.1200186 1.7434036-1.12 2.78.0013281.1976663.0180453.3949292.05.59-.9447171.3562784-2.0107727.0269948-2.59-.8-.31-.45-.67-.96-1.05-1.52-1-1.49-2.2-3.34-3.41-5.34-.7459042-1.2814684-1.7262973-2.4111255-2.89-3.33-1.8679766-1.3888487-4.3767701-1.5532314-6.41-.42l-7.22 3.94c-.31025276.1697574-.68709693.1630156-.99107913-.0177306-.30398219-.1807461-.48988762-.5086122-.48892087-.8622694v-12.91c-.00376463-.39137773.22363297-.74815673.58-.91 3.91991059-1.69071677 8.15129791-2.53903838 12.42-2.49 4.27 0 10.57 2.03 16.91 4.64h.01c.64.26 1.27.53 1.91.8 5.07 2.18 10.66 4.91 15.74 7.59l.01.01h.01c.72.38 1.42.76 2.12 1.14 1.1121059.6065036 1.5557061 1.9768329 1.01 3.12z" fill="#fdd7ad"/><path id="Shape" d="m50.3 12.06c-.2355162 1.2664746-1.4380739 2.1140337-2.71 1.91h-.01l-.01-.01c-5.08-2.68-10.67-5.41-15.74-7.59-.64-.27-1.27-.54-1.91-.8 6.01.92 12.7 2.31 18.6 3.74 1.2282668.30022063 2.0090551 1.5064946 1.78 2.75z" fill="#f9c795"/><g fill="#fff"><path id="Shape" d="m4 12c-.55228475 0-1-.4477153-1-1v-4.631c-.00028523-.42571516.26898431-.80493978.671-.945 1.37383754-.47465235 2.78467258-.83455242 4.218-1.076.35226387-.05984199.70969443.07279228.93765105.34794074.22795661.27514847.29180725.65100955.1675.986-.12430726.33499046-.41788718.57821727-.77015105.63805926-1.09079908.18412297-2.16791694.44170916-3.224.771v3.909c0 .5522847-.44771525 1-1 1z"/><circle id="Oval" cx="20" cy="34" r="1"/></g></g></g></svg>